<?xml version="1.0" standalone="no"?>
<!DOCTYPE svg PUBLIC "-//W3C//DTD SVG 20010904//EN"
 "http://www.w3.org/TR/2001/REC-SVG-20010904/DTD/svg10.dtd">
<svg version="1.0" xmlns="http://www.w3.org/2000/svg"
 width="300.000000pt" height="75.000000pt" viewBox="0 0 300.000000 75.000000"
 preserveAspectRatio="xMidYMid meet">
<metadata>
Created by potrace 1.10, written by Peter Selinger 2001-2011
</metadata>
<g transform="translate(0.000000,75.000000) scale(0.050000,-0.050000)"
fill="#000000" stroke="none">
<path d="M1095 1389 l-47 -50 131 -135 131 -134 55 63 c144 164 -122 417 -270
256z"/>
<path d="M660 950 l-309 -310 129 -130 129 -130 313 312 313 313 -130 127
c-71 71 -131 128 -133 128 -1 0 -142 -139 -312 -310z"/>
<path d="M1780 840 l0 -360 58 0 c32 0 62 9 65 19 4 12 37 9 85 -7 234 -81
428 160 305 380 -68 121 -230 170 -324 99 -66 -50 -74 -36 -60 99 l14 130 -71
0 -72 0 0 -360z m390 -12 c68 -105 8 -228 -112 -228 -96 0 -152 54 -146 141 9
138 185 197 258 87z"/>
<path d="M2440 840 l0 -360 80 0 80 0 0 360 0 360 -80 0 -80 0 0 -360z"/>
<path d="M2811 938 c-124 -108 -135 -271 -27 -378 226 -227 603 42 438 312
-83 136 -292 170 -411 66z m279 -98 c85 -94 15 -247 -112 -247 -121 0 -185
160 -98 247 53 53 162 53 210 0z"/>
<path d="M3508 980 c-144 -58 -188 -285 -78 -400 73 -76 196 -106 284 -70 61
26 66 25 66 -10 0 -87 -140 -126 -249 -69 -56 29 -61 29 -94 -14 -73 -98 170
-174 338 -107 120 48 132 84 141 405 l8 285 -72 0 c-39 0 -72 -9 -72 -21 0
-14 -12 -14 -39 0 -46 25 -174 25 -233 1z m237 -135 c44 -39 46 -151 4 -194
-89 -88 -233 -37 -245 87 -14 136 133 201 241 107z"/>
<path d="M4151 961 c-154 -102 -148 -350 11 -432 74 -38 207 -43 249 -9 42 36
60 10 33 -49 -31 -68 -113 -85 -219 -47 -83 30 -87 30 -116 -11 -84 -121 289
-174 416 -59 55 50 75 158 75 411 l0 235 -70 0 c-38 0 -70 -9 -70 -20 0 -12
-18 -12 -51 0 -82 31 -194 23 -258 -19z m288 -146 c62 -109 -54 -246 -172
-204 -86 30 -125 114 -86 184 62 112 201 122 258 20z"/>
<path d="M4870 981 c-187 -78 -213 -345 -46 -464 109 -77 396 -34 396 60 0 45
-86 65 -150 34 -79 -37 -183 -22 -211 32 -25 45 -35 43 209 37 l198 -4 -14 87
c-30 188 -209 290 -382 218z m225 -156 l30 -45 -143 0 c-151 0 -161 6 -108 64
48 54 181 42 221 -19z"/>
<path d="M5370 740 l0 -260 65 0 65 0 0 141 c0 159 50 239 149 239 45 0 51 8
51 70 0 85 -61 96 -147 29 l-53 -42 0 42 c0 33 -13 41 -65 41 l-65 0 0 -260z"/>
<path d="M261 520 c7 -124 -22 -196 -112 -279 -68 -63 -85 -91 -80 -135 l5
-56 687 -5 c377 -3 682 -2 678 3 -5 5 -113 19 -239 31 -275 26 -377 36 -510
50 -55 6 -183 17 -285 24 -102 7 -185 19 -185 27 0 42 102 99 206 114 l115 16
-142 140 -142 140 4 -70z"/>
</g>
</svg>
